<svg width="134" height="20" viewBox="0 0 134 20" fill="none" xmlns="http://www.w3.org/2000/svg">
<g clip-path="url(#clip0_17336_18406)">
<path d="M31.3034 0.0439453C28.7425 0.0439453 26.3309 1.10349 24.5119 3.02901C22.7027 4.94257 21.707 7.47669 21.707 10.1625V19.8559H24.3918V10.1625C24.3918 8.20101 25.1182 6.3533 26.4355 4.95854C27.7449 3.57375 29.4728 2.81152 31.3034 2.81152C33.1339 2.81152 34.8618 3.57375 36.1713 4.95854C37.4904 6.3533 38.2149 8.20101 38.2149 10.1625V19.8559H40.8997V10.1625C40.8997 7.47669 39.904 4.94257 38.0948 3.02901C36.2759 1.10349 33.8642 0.0439453 31.3034 0.0439453Z" fill="black"/>
<path d="M31.3033 9.75928C30.5634 9.75928 29.9609 10.3798 29.9609 11.1421V19.8538H32.6457V11.1421C32.6457 10.3798 32.0433 9.75928 31.3033 9.75928Z" fill="#FA5E06"/>
<path d="M2.89788 2.97474C1.02859 4.84839 0 7.33262 0 9.9705C0 12.6084 1.02859 15.0926 2.89788 16.9663C4.75555 18.8299 7.21565 19.8555 9.82297 19.8555H19.1714V17.09H9.82297C7.91882 17.09 6.12507 16.3417 4.77105 14.9849C3.42671 13.636 2.68674 11.8561 2.68674 9.9705C2.68674 8.08488 3.42671 6.30501 4.77105 4.95614C6.12507 3.5973 7.92075 2.85103 9.82297 2.85103H19.1694V0.0854492H9.82297C7.21565 0.0854492 4.75555 1.11107 2.89788 2.97474Z" fill="black"/>
<path d="M130.396 3.02657C128.577 1.10304 126.165 0.0415039 123.604 0.0415039C121.043 0.0415039 118.632 1.10104 116.813 3.02657C115.003 4.94013 114.008 7.47425 114.008 10.16V19.8535H116.693V10.16C116.693 8.19857 117.419 6.35086 118.736 4.95609C120.046 3.57131 121.774 2.80908 123.604 2.80908C125.435 2.80908 127.163 3.57131 128.472 4.95609C129.791 6.35086 130.516 8.19857 130.516 10.16V19.8535H133.2V10.16C133.2 7.47425 132.205 4.94013 130.396 3.02657Z" fill="black"/>
<path d="M123.604 9.75928C122.864 9.75928 122.262 10.3798 122.262 11.1421V19.8558H124.947V11.1421C124.947 10.3798 124.344 9.75928 123.604 9.75928Z" fill="#FA5E06"/>
<path d="M65.207 2.80952H73.5326V19.8559H76.2174V2.80952H84.483V0.0439453H65.207V2.80952Z" fill="black"/>
<path d="M59.9843 15.1089L45.3186 0H43.459V19.8559H46.1419V4.74897L60.8076 19.8559H62.6517V0H59.9843V15.1089Z" fill="black"/>
<path d="M108.793 15.1089L94.1272 0H92.2676V19.8559H94.9524V4.74897L109.616 19.8559H111.462V0H108.793V15.1089Z" fill="black"/>
<path d="M89.716 0H87.0273V19.8559H89.716V0Z" fill="black"/>
</g>
<defs>
<clipPath id="clip0_17336_18406">
<rect width="133.2" height="19.8559" fill="white"/>
</clipPath>
</defs>
</svg>
