<svg xmlns="http://www.w3.org/2000/svg" xmlns:xlink="http://www.w3.org/1999/xlink" width="1920" zoomAndPan="magnify" viewBox="0 0 1440 525.000007" height="700" preserveAspectRatio="xMidYMid meet" version="1.0"><defs><g><g id="id1"/></g></defs><g fill="rgb(0%, 0%, 0%)" fill-opacity="1"><g transform="translate(114.750371, 334.800103)"><g><path d="M 86.859375 0 L 60.640625 0 L 0.640625 -150.515625 L 27.953125 -150.515625 L 74.390625 -28.171875 L 121.265625 -150.515625 L 147.71875 -150.515625 Z M 86.859375 0 "/></g></g></g><g fill="rgb(0%, 0%, 0%)" fill-opacity="1"><g transform="translate(267.409338, 334.800103)"><g><path d="M 127.296875 -127.71875 L 45.15625 -127.71875 L 45.15625 -87.078125 L 118.6875 -87.078125 L 118.6875 -64.296875 L 45.15625 -64.296875 L 45.15625 -22.796875 L 129.875 -22.796875 L 129.875 0 L 19.78125 0 L 19.78125 -150.515625 L 127.296875 -150.515625 Z M 127.296875 -127.71875 "/></g></g></g><g fill="rgb(0%, 0%, 0%)" fill-opacity="1"><g transform="translate(412.757872, 334.800103)"><g><path d="M 115.25 0 L 87.71875 -45.578125 C 86.289062 -45.441406 84 -45.375 80.84375 -45.375 L 45.15625 -45.375 L 45.15625 0 L 19.78125 0 L 19.78125 -150.515625 L 80.84375 -150.515625 C 100.050781 -150.515625 114.957031 -146.035156 125.5625 -137.078125 C 136.175781 -128.117188 141.484375 -115.46875 141.484375 -99.125 C 141.484375 -87.082031 138.796875 -76.90625 133.421875 -68.59375 C 128.046875 -60.28125 120.335938 -54.1875 110.296875 -50.3125 L 144.0625 0 Z M 45.15625 -68.15625 L 80.84375 -68.15625 C 105.21875 -68.15625 117.40625 -78.265625 117.40625 -98.484375 C 117.40625 -117.972656 105.21875 -127.71875 80.84375 -127.71875 L 45.15625 -127.71875 Z M 45.15625 -68.15625 "/></g></g></g><g fill="rgb(0%, 0%, 0%)" fill-opacity="1"><g transform="translate(572.512266, 334.800103)"><g><path d="M 45.15625 0 L 19.78125 0 L 19.78125 -150.515625 L 45.15625 -150.515625 Z M 45.15625 0 "/></g></g></g><g fill="rgb(0%, 0%, 0%)" fill-opacity="1"><g transform="translate(641.746371, 334.800103)"><g><path d="M 45.15625 -23 L 110.296875 -23 L 110.296875 0 L 19.78125 0 L 19.78125 -150.515625 L 45.15625 -150.515625 Z M 45.15625 -23 "/></g></g></g><g fill="rgb(0%, 0%, 0%)" fill-opacity="1"><g transform="translate(760.863411, 334.800103)"><g><path d="M 30.3125 -129.328125 C 45.65625 -143.878906 64.578125 -151.15625 87.078125 -151.15625 C 109.585938 -151.15625 128.507812 -143.878906 143.84375 -129.328125 C 159.1875 -114.785156 166.859375 -96.757812 166.859375 -75.25 C 166.859375 -53.75 159.1875 -35.648438 143.84375 -20.953125 C 128.507812 -6.265625 109.585938 1.078125 87.078125 1.078125 C 64.578125 1.078125 45.65625 -6.265625 30.3125 -20.953125 C 14.976562 -35.648438 7.3125 -53.75 7.3125 -75.25 C 7.3125 -96.757812 14.976562 -114.785156 30.3125 -129.328125 Z M 87.296875 -128.359375 C 72.390625 -128.359375 59.628906 -123.234375 49.015625 -112.984375 C 38.410156 -102.734375 33.109375 -90.15625 33.109375 -75.25 C 33.109375 -60.34375 38.445312 -47.691406 49.125 -37.296875 C 59.8125 -26.910156 72.535156 -21.71875 87.296875 -21.71875 C 102.054688 -21.71875 114.664062 -26.910156 125.125 -37.296875 C 135.59375 -47.691406 140.828125 -60.34375 140.828125 -75.25 C 140.828125 -90.15625 135.59375 -102.734375 125.125 -112.984375 C 114.664062 -123.234375 102.054688 -128.359375 87.296875 -128.359375 Z M 87.296875 -128.359375 "/></g></g></g><g fill="rgb(0%, 0%, 0%)" fill-opacity="1"><g transform="translate(939.323864, 334.800103)"><g><path d="M 122.78125 -73.96875 L 144.921875 -73.96875 L 144.921875 -18.484375 C 137.179688 -12.609375 128.039062 -7.878906 117.5 -4.296875 C 106.96875 -0.710938 96.613281 1.078125 86.4375 1.078125 C 64.21875 1.078125 45.472656 -6.265625 30.203125 -20.953125 C 14.941406 -35.648438 7.3125 -53.75 7.3125 -75.25 C 7.3125 -96.757812 15.050781 -114.785156 30.53125 -129.328125 C 46.007812 -143.878906 65.144531 -151.15625 87.9375 -151.15625 C 98.550781 -151.15625 108.976562 -149.253906 119.21875 -145.453125 C 129.46875 -141.660156 138.320312 -136.535156 145.78125 -130.078125 L 131.375 -111.375 C 119.050781 -122.84375 104.570312 -128.578125 87.9375 -128.578125 C 72.601562 -128.578125 59.628906 -123.414062 49.015625 -113.09375 C 38.410156 -102.769531 33.109375 -90.15625 33.109375 -75.25 C 33.109375 -60.195312 38.445312 -47.507812 49.125 -37.1875 C 59.8125 -26.875 72.820312 -21.71875 88.15625 -21.71875 C 99.769531 -21.71875 111.3125 -25.15625 122.78125 -32.03125 Z M 122.78125 -73.96875 "/></g></g></g><path fill="rgb(0%, 0%, 0%)" d="M 1295.035156 121.175781 C 1372.929688 121.175781 1436.171875 184.417969 1436.171875 262.316406 C 1436.171875 340.210938 1372.929688 403.453125 1295.035156 403.453125 C 1217.140625 403.453125 1153.898438 340.210938 1153.898438 262.316406 C 1153.898438 184.417969 1217.140625 121.175781 1295.035156 121.175781 Z M 1252.011719 205.785156 L 1234.605469 205.785156 L 1281.207031 328.6875 L 1298.617188 328.6875 Z M 1307.148438 319.695312 L 1298.445312 296.746094 L 1332.941406 205.785156 L 1350.347656 205.785156 Z M 1307.148438 319.695312 " fill-opacity="1" fill-rule="evenodd"/></svg>